<?xml version="1.0" encoding="UTF-8"?>
<svg width="93px" height="93px" viewBox="0 0 93 93" version="1.1" xmlns="http://www.w3.org/2000/svg" xmlns:xlink="http://www.w3.org/1999/xlink">
    <!-- Generator: Sketch 61.2 (89653) - https://sketch.com -->
    <title>logo-stacked</title>
    <desc>Created with Sketch.</desc>
    <g id="logo-stacked" stroke="none" stroke-width="1" fill="none" fill-rule="evenodd">
        <g id="Smaller" transform="translate(23.000000, 5.000000)">
            <rect id="Rectangle" fill="#FFFFFF" x="7" y="34" width="33" height="22"></rect>
            <path d="M26.351695,0.0582965197 C26.8024201,0.231309709 27.0275469,0.736941121 26.8545297,1.18765589 L18.4936689,22.9676308 L40.8476821,22.9677389 C44.7977982,22.9677389 48,26.1698671 48,30.1198923 L48,52.8478466 C48,56.7978718 44.7977982,60 40.8476821,60 L7.15231788,60 C3.20220179,60 0,56.7978718 0,52.8478466 L0,30.1198923 C0,26.1698671 3.20220179,22.9677389 7.15231788,22.9677389 L16.3486093,22.9676308 L9.44281451,8.80921977 C9.23117244,8.3752992 9.41137286,7.85197123 9.8453034,7.64033402 C10.279234,7.42869682 10.802574,7.60889309 11.014216,8.04281366 L17.3577219,21.0486286 L25.2223097,0.561119706 C25.3953268,0.110404939 25.9009699,-0.114716669 26.351695,0.0582965197 Z M11,41 C11.3774674,47.1317549 17.0635449,52 24.0225846,52 C30.7840648,52 36.343833,47.4042397 37,41.5189597 C35.2012282,45.7450085 30.1059058,48.7920569 24.1011541,48.7920569 C17.8533442,48.7920569 12.5900768,45.4933415 11,41 Z" id="Shape" fill="#646AF0"></path>
        </g>
        <path d="M3.205,88 C3.57166667,88 3.84666667,87.9046667 4.03,87.714 C4.21333333,87.5233333 4.305,87.252 4.305,86.9 L4.305,86.9 L4.304,80.476 L4.31301235,80.2554568 C4.35040329,79.7509959 4.51866255,79.3175144 4.81779012,78.9550123 L4.954,78.804 C5.38666667,78.364 5.977,78.0633333 6.725,77.902 C7.473,77.7406667 8.31633333,77.7553333 9.255,77.946 C9.44566667,77.99 9.62166667,77.9973333 9.783,77.968 C9.94433333,77.9386667 10.0873333,77.869 10.212,77.759 C10.3366667,77.649 10.421,77.4913333 10.465,77.286 C10.5676667,76.89 10.4026667,76.549 9.97,76.263 C9.53733333,75.977 8.881,75.834 8.001,75.834 C7.121,75.834 6.31433333,76.0393333 5.581,76.45 C5.09211111,76.7237778 4.67003704,77.0611111 4.31477778,77.462 L4.304,77.475 L4.305,77.066 C4.305,76.7517143 4.23765306,76.5047755 4.10295918,76.3251837 L4.03,76.241 C3.84666667,76.0576667 3.57166667,75.966 3.205,75.966 C2.853,75.966 2.58166667,76.0613333 2.391,76.252 C2.20033333,76.4426667 2.105,76.714 2.105,77.066 L2.105,77.066 L2.105,86.9 C2.105,87.2666667 2.20033333,87.5416667 2.391,87.725 C2.58166667,87.9083333 2.853,88 3.205,88 Z M16.933,88.088 C18.0036667,88.088 18.9643333,87.8203333 19.815,87.285 C20.3254,86.9638 20.77112,86.57396 21.15216,86.11548 L21.178,86.083 L21.179,86.9 C21.179,87.1765714 21.2571224,87.4127347 21.4133673,87.6084898 L21.498,87.703 C21.7106667,87.9156667 21.9783333,88.022 22.301,88.022 C22.6236667,88.022 22.8913333,87.9156667 23.104,87.703 C23.3166667,87.4903333 23.423,87.2226667 23.423,86.9 L23.423,86.9 L23.423,81.994 C23.423,80.8353333 23.1553333,79.794 22.62,78.87 C22.0846667,77.946 21.3623333,77.2163333 20.453,76.681 C19.5436667,76.1456667 18.517,75.878 17.373,75.878 C16.229,75.878 15.1986667,76.1456667 14.282,76.681 C13.3653333,77.2163333 12.6393333,77.946 12.104,78.87 C11.5686667,79.794 11.301,80.8353333 11.301,81.994 C11.301,83.1526667 11.5466667,84.1903333 12.038,85.107 C12.5293333,86.0236667 13.2003333,86.7496667 14.051,87.285 C14.9016667,87.8203333 15.8623333,88.088 16.933,88.088 Z M17.373,86.108 C16.6396667,86.108 15.976,85.9283333 15.382,85.569 C14.788,85.2096667 14.3186667,84.7183333 13.974,84.095 C13.6293333,83.4716667 13.457,82.7713333 13.457,81.994 C13.457,81.202 13.6293333,80.4943333 13.974,79.871 C14.3186667,79.2476667 14.788,78.7563333 15.382,78.397 C15.976,78.0376667 16.6396667,77.858 17.373,77.858 C18.121,77.858 18.7883333,78.0376667 19.375,78.397 C19.9616667,78.7563333 20.4236667,79.2476667 20.761,79.871 C21.0983333,80.4943333 21.267,81.202 21.267,81.994 C21.267,82.7713333 21.0983333,83.4716667 20.761,84.095 C20.4236667,84.7183333 19.9616667,85.2096667 19.375,85.569 C18.7883333,85.9283333 18.121,86.108 17.373,86.108 Z M30.177,87.978 C30.6316667,87.978 30.969,87.736 31.189,87.252 L31.189,87.252 L35.853,77.418 C35.9703333,77.1686667 35.985,76.9193333 35.897,76.67 C35.809,76.4206667 35.633,76.2373333 35.369,76.12 C35.0903333,75.988 34.8153333,75.966 34.544,76.054 C34.2726667,76.142 34.071,76.3106667 33.939,76.56 L33.939,76.56 L30.151,84.811 L26.327,76.56 C26.217,76.3522222 26.063713,76.200463 25.8671389,76.1047222 L25.744,76.054 C25.4873333,75.966 25.2343333,75.988 24.985,76.12 C24.7063333,76.252 24.5193333,76.439 24.424,76.681 C24.3286667,76.923 24.3396667,77.1686667 24.457,77.418 L24.457,77.418 L29.121,87.252 C29.3703333,87.736 29.7223333,87.978 30.177,87.978 Z M43.377,88.088 C44.0516667,88.088 44.7593333,87.9633333 45.5,87.714 C46.2406667,87.4646667 46.8603333,87.142 47.359,86.746 C47.6083333,86.5553333 47.7256667,86.328 47.711,86.064 C47.6963333,85.8 47.5643333,85.558 47.315,85.338 C47.1243333,85.1766667 46.9006667,85.0996667 46.644,85.107 C46.3873333,85.1143333 46.149,85.1986667 45.929,85.36 C45.6356667,85.58 45.2506667,85.7743333 44.774,85.943 C44.2973333,86.1116667 43.8316667,86.196 43.377,86.196 C42.541,86.196 41.8003333,86.0126667 41.155,85.646 C40.5096667,85.2793333 40.0036667,84.7806667 39.637,84.15 C39.3925556,83.7295556 39.2295926,83.27 39.1481111,82.7713333 L39.147,82.764 L47.513,82.764 C47.7574444,82.764 47.9662407,82.7003426 48.1393889,82.5730278 L48.239,82.489 C48.4296667,82.3056667 48.525,82.0746667 48.525,81.796 C48.525,80.6373333 48.3086667,79.6143333 47.876,78.727 C47.4433333,77.8396667 46.8163333,77.143 45.995,76.637 C45.1736667,76.131 44.191,75.878 43.047,75.878 C41.8883333,75.878 40.8616667,76.1383333 39.967,76.659 C39.0723333,77.1796667 38.372,77.8983333 37.866,78.815 C37.36,79.7316667 37.107,80.7913333 37.107,81.994 C37.107,83.182 37.3746667,84.2343333 37.91,85.151 C38.4453333,86.0676667 39.186,86.7863333 40.132,87.307 C41.078,87.8276667 42.1596667,88.088 43.377,88.088 Z M46.497,81.005 L39.173,81.005 L39.2025,80.84725 C39.26025,80.576375 39.3396562,80.3173594 39.4407187,80.0702031 L39.549,79.827 C39.857,79.189 40.308,78.6866667 40.902,78.32 C41.496,77.9533333 42.211,77.77 43.047,77.77 C43.7803333,77.77 44.4036667,77.9386667 44.917,78.276 C45.4303333,78.6133333 45.8263333,79.0716667 46.105,79.651 C46.2791667,80.0130833 46.4017708,80.4052448 46.4728125,80.8274844 L46.497,81.005 Z M57.435,88.088 C58.5936667,88.088 59.6276667,87.8203333 60.537,87.285 C61.4463333,86.7496667 62.1686667,86.02 62.704,85.096 C63.2393333,84.172 63.507,83.1306667 63.507,81.972 C63.507,80.8133333 63.2613333,79.7756667 62.77,78.859 C62.2786667,77.9423333 61.6076667,77.2163333 60.757,76.681 C59.9063333,76.1456667 58.9456667,75.878 57.875,75.878 C57.0096667,75.878 56.214,76.0576667 55.488,76.417 C54.762,76.7763333 54.1423333,77.264 53.629,77.88 L53.629,77.88 L53.629,71.94 C53.629,71.6026667 53.5263333,71.3313333 53.321,71.126 C53.1156667,70.9206667 52.8443333,70.818 52.507,70.818 C52.1843333,70.818 51.9166667,70.9206667 51.704,71.126 C51.4913333,71.3313333 51.385,71.6026667 51.385,71.94 L51.385,71.94 L51.385,81.972 C51.3996667,83.1306667 51.671,84.172 52.199,85.096 C52.727,86.02 53.4456667,86.7496667 54.355,87.285 C55.2643333,87.8203333 56.291,88.088 57.435,88.088 Z M57.435,86.108 C56.7016667,86.108 56.038,85.9283333 55.444,85.569 C54.85,85.2096667 54.3843333,84.7146667 54.047,84.084 C53.7096667,83.4533333 53.541,82.7493333 53.541,81.972 C53.541,81.18 53.7096667,80.476 54.047,79.86 C54.3843333,79.244 54.85,78.7563333 55.444,78.397 C56.038,78.0376667 56.7016667,77.858 57.435,77.858 C58.183,77.858 58.8503333,78.0376667 59.437,78.397 C60.0236667,78.7563333 60.4893333,79.244 60.834,79.86 C61.1786667,80.476 61.351,81.18 61.351,81.972 C61.351,82.7493333 61.1786667,83.4533333 60.834,84.084 C60.4893333,84.7146667 60.0236667,85.2096667 59.437,85.569 C58.8503333,85.9283333 58.183,86.108 57.435,86.108 Z M72.307,88.088 C73.495,88.088 74.5436667,87.8276667 75.453,87.307 C76.3623333,86.7863333 77.0736667,86.0676667 77.587,85.151 C78.1003333,84.2343333 78.357,83.182 78.357,81.994 C78.357,80.7913333 78.0966667,79.7316667 77.576,78.815 C77.0553333,77.8983333 76.3403333,77.1796667 75.431,76.659 C74.5216667,76.1383333 73.4803333,75.878 72.307,75.878 C71.119,75.878 70.0703333,76.1383333 69.161,76.659 C68.2516667,77.1796667 67.5366667,77.8983333 67.016,78.815 C66.4953333,79.7316667 66.235,80.7913333 66.235,81.994 C66.235,83.182 66.4953333,84.2343333 67.016,85.151 C67.5366667,86.0676667 68.2516667,86.7863333 69.161,87.307 C70.0703333,87.8276667 71.119,88.088 72.307,88.088 Z M72.307,86.108 C71.5443333,86.108 70.8696667,85.932 70.283,85.58 C69.6963333,85.228 69.2343333,84.744 68.897,84.128 C68.5596667,83.512 68.391,82.8006667 68.391,81.994 C68.391,81.1873333 68.5596667,80.4723333 68.897,79.849 C69.2343333,79.2256667 69.6963333,78.738 70.283,78.386 C70.8696667,78.034 71.5443333,77.858 72.307,77.858 C73.0696667,77.858 73.7443333,78.034 74.331,78.386 C74.9176667,78.738 75.376,79.2256667 75.706,79.849 C76.036,80.4723333 76.201,81.1873333 76.201,81.994 C76.201,82.8006667 76.036,83.512 75.706,84.128 C75.376,84.744 74.9176667,85.228 74.331,85.58 C73.7443333,85.932 73.0696667,86.108 72.307,86.108 Z M89.049,88 C89.3423333,88 89.5806667,87.912 89.764,87.736 C89.9473333,87.56 90.0426667,87.3436667 90.05,87.087 C90.0573333,86.8303333 89.951,86.57 89.731,86.306 L89.731,86.306 L86.242,82.132 L89.555,77.792 C89.7261111,77.572 89.8284722,77.3469074 89.8620833,77.1167222 L89.874,76.978 C89.8813333,76.6993333 89.8043333,76.461 89.643,76.263 C89.4816667,76.065 89.2396667,75.966 88.917,75.966 C88.7556667,75.966 88.609,75.9916667 88.477,76.043 C88.345,76.0943333 88.2203333,76.1933333 88.103,76.34 L88.103,76.34 L84.867,80.642 L81.261,76.34 C81.085,76.1262857 80.8551224,76.0041633 80.5713673,75.9736327 L80.425,75.966 C80.1023333,75.966 79.8603333,76.0613333 79.699,76.252 C79.5376667,76.4426667 79.4643333,76.6736667 79.479,76.945 C79.4936667,77.2163333 79.5963333,77.4693333 79.787,77.704 L79.787,77.704 L83.412,81.996 L80.007,86.262 C79.8358889,86.482 79.7360741,86.702 79.7075556,86.922 L79.699,87.054 C79.699,87.318 79.7833333,87.5416667 79.952,87.725 C80.1206667,87.9083333 80.3516667,88 80.645,88 C80.953,88 81.217,87.8826667 81.437,87.648 L81.437,87.648 L84.767,83.46 L88.257,87.648 C88.345,87.758 88.437125,87.839125 88.533375,87.891375 L88.631,87.934 C88.763,87.978 88.9023333,88 89.049,88 Z" id="ravebox" fill="#646AF0" fill-rule="nonzero"></path>
    </g>
</svg>