<?xml version="1.0" encoding="UTF-8"?>
<svg width="24px" height="24px" viewBox="0 0 24 24" version="1.1" xmlns="http://www.w3.org/2000/svg" xmlns:xlink="http://www.w3.org/1999/xlink">
    <!-- Generator: Sketch 61.2 (89653) - https://sketch.com -->
    <title>Artboard</title>
    <desc>Created with Sketch.</desc>
    <g id="Artboard" stroke="none" stroke-width="1" fill="none" fill-rule="evenodd">
        <path d="M12.8818856,1.022347 C13.0509075,1.08866872 13.1353301,1.2824941 13.0704487,1.45526809 L9.93512583,9.80425849 L18.3178808,9.80429991 C19.7991743,9.80429991 21,11.0317824 21,12.5459587 L21,21.2583412 C21,22.7725175 19.7991743,24 18.3178808,24 L5.68211921,24 C4.20082567,24 3,22.7725175 3,21.2583412 L3,12.5459587 C3,11.0317824 4.20082567,9.80429991 5.68211921,9.80429991 L9.13072848,9.80425849 L6.54105544,4.37686758 C6.46168967,4.21053136 6.52926482,4.0099223 6.69198878,3.92879471 C6.85471273,3.84766712 7.05096523,3.91674235 7.13033101,4.08307857 L9.5091457,9.06864097 L12.4583661,1.21509589 C12.5232476,1.04232189 12.7128637,0.956025277 12.8818856,1.022347 Z M7,16 C7.14517977,18.2297291 9.33213267,20 12.0086864,20 C14.6092557,20 16.7476281,18.3288144 17,16.1887126 C16.3081647,17.7254576 14.3484253,18.8334752 12.0389054,18.8334752 C9.63590162,18.8334752 7.611568,17.6339423 7,16 Z" id="Shape" fill="#646AF0"></path>
    </g>
</svg>