<?xml version="1.0" encoding="UTF-8"?>
<svg width="25px" height="25px" viewBox="0 0 25 25" version="1.1" xmlns="http://www.w3.org/2000/svg" xmlns:xlink="http://www.w3.org/1999/xlink">
    <!-- Generator: Sketch 61.2 (89653) - https://sketch.com -->
    <title>Artboard</title>
    <desc>Created with Sketch.</desc>
    <g id="Artboard" stroke="none" stroke-width="1" fill="none" fill-rule="evenodd">
        <path d="M13.4308793,1.02331861 C13.6092913,1.09252388 13.698404,1.29477645 13.629918,1.47506235 L10.3204106,10.1870523 L19.1688742,10.1870956 C20.7324618,10.1870956 22,11.4679468 22,13.0479569 L22,22.1391386 C22,23.7191487 20.7324618,25 19.1688742,25 L5.83112583,25 C4.26753821,25 3,23.7191487 3,22.1391386 L3,13.0479569 C3,11.4679468 4.26753821,10.1870956 5.83112583,10.1870956 L9.4713245,10.1870523 L6.73778074,4.52368791 C6.65400576,4.35011968 6.72533509,4.14078849 6.89709926,4.05613361 C7.06886344,3.97147873 7.27601886,4.04355724 7.35979384,4.21712546 L9.8707649,9.41945144 L12.9838309,1.22444788 C13.0523169,1.04416198 13.2524672,0.954113332 13.4308793,1.02331861 Z M8,16 C8.14517977,18.2297291 10.3321327,20 13.0086864,20 C15.6092557,20 17.7476281,18.3288144 18,16.1887126 C17.3081647,17.7254576 15.3484253,18.8334752 13.0389054,18.8334752 C10.6359016,18.8334752 8.611568,17.6339423 8,16 Z" id="Shape" fill="#9095FF"></path>
    </g>
</svg>