<?xml version="1.0" encoding="UTF-8"?>
<svg width="93px" height="93px" viewBox="0 0 93 93" version="1.1" xmlns="http://www.w3.org/2000/svg" xmlns:xlink="http://www.w3.org/1999/xlink">
    <!-- Generator: Sketch 61.2 (89653) - https://sketch.com -->
    <title>logo-stacked-inverse</title>
    <desc>Created with Sketch.</desc>
    <g id="logo-stacked-inverse" stroke="none" stroke-width="1" fill="none" fill-rule="evenodd">
        <g id="Smaller" transform="translate(24.000000, 6.000000)" fill="#FFFFFF">
            <path d="M25.2537077,0.0563533024 C25.6856526,0.223599385 25.9013991,0.712376417 25.735591,1.14806736 L17.7230993,22.2020431 L39.1456954,22.2021476 C42.9312233,22.2021476 46,25.2975382 46,29.1158959 L46,51.0862517 C46,54.9046094 42.9312233,58 39.1456954,58 L6.85430464,58 C3.06877671,58 0,54.9046094 0,51.0862517 L0,29.1158959 C0,25.2975382 3.06877671,22.2021476 6.85430464,22.2021476 L15.6674172,22.2020431 L9.04936391,8.51557911 C8.84654026,8.09612256 9.01923232,7.59023885 9.43508243,7.38565622 C9.85093254,7.18107359 10.3524667,7.35526332 10.5552904,7.77471987 L16.6344834,20.3470077 L24.1713801,0.542415716 C24.3371882,0.106724775 24.8217628,-0.11089278 25.2537077,0.0563533024 Z M11,39 C11.3629494,45.1317549 16.8303317,50 23.521716,50 C30.0231393,50 35.3690702,45.4042397 36,39.5189597 C34.2704117,43.7450085 29.3710633,46.7920569 23.5972636,46.7920569 C17.589754,46.7920569 12.52892,43.4933415 11,39 Z" id="Shape"></path>
        </g>
        <text id="ravebox" font-family="Comfortaa-Regular_Bold, Comfortaa" font-size="15" font-weight="bold" fill="#FFFFFF">
            <tspan x="15.5625" y="80">ravebox</tspan>
        </text>
    </g>
</svg>